  0
SECTION
  2
HEADER
  9
$ANGBASE
  50
0.0
  9
$ANGDIR
  70
  1
  9
$MEASUREMENT
  70
0
  0
ENDSEC
  0
SECTION
  2
TABLES
  0
TABLE
  2
LTYPE
  70
1
  0
LTYPE
  2
CONTINUOUS
  70
0
  3
Solid line
  72
65
  73
0
  40
0.0
  0
ENDTAB
  0
TABLE
  2
STYLE
  70
4
  0
STYLE
  2
KICAD
  70
0
  40
0
  41
1
  42
1
  50
0
  71
0
  3
isocp.shx
  0
STYLE
  2
KICADB
  70
0
  40
0
  41
1
  42
1
  50
0
  71
0
  3
isocp.shx
  0
STYLE
  2
KICADI
  70
0
  40
0
  41
1
  42
1
  50
15
  71
0
  3
isocp.shx
  0
STYLE
  2
KICADBI
  70
0
  40
0
  41
1
  42
1
  50
15
  71
0
  3
isocp.shx
  0
ENDTAB
  0
TABLE
  2
LAYER
  70
30
  0
LAYER
  2
BLACK
  70
0
  62
7
  6
CONTINUOUS
  0
LAYER
  2
GRAY1
  70
0
  62
251
  6
CONTINUOUS
  0
LAYER
  2
GRAY2
  70
0
  62
8
  6
CONTINUOUS
  0
LAYER
  2
GRAY3
  70
0
  62
9
  6
CONTINUOUS
  0
LAYER
  2
WHITE
  70
0
  62
7
  6
CONTINUOUS
  0
LAYER
  2
LYELLOW
  70
0
  62
51
  6
CONTINUOUS
  0
LAYER
  2
BLUE1
  70
0
  62
178
  6
CONTINUOUS
  0
LAYER
  2
GREEN1
  70
0
  62
98
  6
CONTINUOUS
  0
LAYER
  2
CYAN1
  70
0
  62
138
  6
CONTINUOUS
  0
LAYER
  2
RED1
  70
0
  62
18
  6
CONTINUOUS
  0
LAYER
  2
MAGENTA1
  70
0
  62
228
  6
CONTINUOUS
  0
LAYER
  2
BROWN1
  70
0
  62
58
  6
CONTINUOUS
  0
LAYER
  2
BLUE2
  70
0
  62
5
  6
CONTINUOUS
  0
LAYER
  2
GREEN2
  70
0
  62
3
  6
CONTINUOUS
  0
LAYER
  2
CYAN2
  70
0
  62
4
  6
CONTINUOUS
  0
LAYER
  2
RED2
  70
0
  62
1
  6
CONTINUOUS
  0
LAYER
  2
MAGENTA2
  70
0
  62
6
  6
CONTINUOUS
  0
LAYER
  2
BROWN2
  70
0
  62
54
  6
CONTINUOUS
  0
LAYER
  2
BLUE3
  70
0
  62
171
  6
CONTINUOUS
  0
LAYER
  2
GREEN3
  70
0
  62
91
  6
CONTINUOUS
  0
LAYER
  2
CYAN3
  70
0
  62
131
  6
CONTINUOUS
  0
LAYER
  2
RED3
  70
0
  62
11
  6
CONTINUOUS
  0
LAYER
  2
MAGENTA3
  70
0
  62
221
  6
CONTINUOUS
  0
LAYER
  2
YELLOW3
  70
0
  62
2
  6
CONTINUOUS
  0
LAYER
  2
BLUE4
  70
0
  62
5
  6
CONTINUOUS
  0
LAYER
  2
GREEN4
  70
0
  62
3
  6
CONTINUOUS
  0
LAYER
  2
CYAN4
  70
0
  62
4
  6
CONTINUOUS
  0
LAYER
  2
RED4
  70
0
  62
1
  6
CONTINUOUS
  0
LAYER
  2
MAGENTA4
  70
0
  62
6
  6
CONTINUOUS
  0
LAYER
  2
YELLOW4
  70
0
  62
2
  6
CONTINUOUS
  0
ENDTAB
  0
ENDSEC
  0
SECTION
  2
ENTITIES
0
LINE
8
Black
10
334.506
20
-28.9261
11
334.513
21
-28.9261
0
LINE
8
Black
10
334.513
20
-28.9261
11
334.519
21
-28.9284
0
LINE
8
Black
10
334.519
20
-28.9284
11
334.526
21
-28.9295
0
LINE
8
Black
10
334.526
20
-28.9295
11
334.531
21
-28.9328
0
LINE
8
Black
10
334.531
20
-28.9328
11
334.537
21
-28.935
0
LINE
8
Black
10
334.537
20
-28.935
11
334.543
21
-28.9393
0
LINE
8
Black
10
334.543
20
-28.9393
11
334.548
21
-28.9425
0
LINE
8
Black
10
334.548
20
-28.9425
11
334.552
21
-28.9476
0
LINE
8
Black
10
334.552
20
-28.9476
11
334.557
21
-28.9518
0
LINE
8
Black
10
334.557
20
-28.9518
11
334.561
21
-28.9575
0
LINE
8
Black
10
334.561
20
-28.9575
11
334.565
21
-28.9625
0
LINE
8
Black
10
334.565
20
-28.9625
11
334.567
21
-28.9687
0
LINE
8
Black
10
334.567
20
-28.9687
11
334.57
21
-28.9743
0
LINE
8
Black
10
334.57
20
-28.9743
11
334.572
21
-28.9808
0
LINE
8
Black
10
334.572
20
-28.9808
11
334.574
21
-28.987
0
LINE
8
Black
10
334.574
20
-28.987
11
334.574
21
-28.9935
0
LINE
8
Black
10
334.574
20
-28.9935
11
334.575
21
-29
0
LINE
8
Black
10
334.575
20
-29
11
334.575
21
-239
0
LINE
8
Black
10
334.575
20
-239
11
334.574
21
-239.006
0
LINE
8
Black
10
334.574
20
-239.006
11
334.574
21
-239.013
0
LINE
8
Black
10
334.574
20
-239.013
11
334.572
21
-239.019
0
LINE
8
Black
10
334.572
20
-239.019
11
334.57
21
-239.026
0
LINE
8
Black
10
334.57
20
-239.026
11
334.567
21
-239.031
0
LINE
8
Black
10
334.567
20
-239.031
11
334.565
21
-239.037
0
LINE
8
Black
10
334.565
20
-239.037
11
334.561
21
-239.043
0
LINE
8
Black
10
334.561
20
-239.043
11
334.557
21
-239.048
0
LINE
8
Black
10
334.557
20
-239.048
11
334.552
21
-239.052
0
LINE
8
Black
10
334.552
20
-239.052
11
334.548
21
-239.057
0
LINE
8
Black
10
334.548
20
-239.057
11
334.543
21
-239.061
0
LINE
8
Black
10
334.543
20
-239.061
11
334.537
21
-239.065
0
LINE
8
Black
10
334.537
20
-239.065
11
334.531
21
-239.067
0
LINE
8
Black
10
334.531
20
-239.067
11
334.526
21
-239.07
0
LINE
8
Black
10
334.526
20
-239.07
11
334.519
21
-239.072
0
LINE
8
Black
10
334.519
20
-239.072
11
334.513
21
-239.074
0
LINE
8
Black
10
334.513
20
-239.074
11
334.506
21
-239.074
0
LINE
8
Black
10
334.506
20
-239.074
11
334.5
21
-239.075
0
LINE
8
Black
10
334.5
20
-239.075
11
84.5
21
-239.075
0
LINE
8
Black
10
84.5
20
-239.075
11
84.4935
21
-239.074
0
LINE
8
Black
10
84.4935
20
-239.074
11
84.487
21
-239.074
0
LINE
8
Black
10
84.487
20
-239.074
11
84.4808
21
-239.072
0
LINE
8
Black
10
84.4808
20
-239.072
11
84.4743
21
-239.07
0
LINE
8
Black
10
84.4743
20
-239.07
11
84.4687
21
-239.067
0
LINE
8
Black
10
84.4687
20
-239.067
11
84.4625
21
-239.065
0
LINE
8
Black
10
84.4625
20
-239.065
11
84.4575
21
-239.061
0
LINE
8
Black
10
84.4575
20
-239.061
11
84.4518
21
-239.057
0
LINE
8
Black
10
84.4518
20
-239.057
11
84.4476
21
-239.052
0
LINE
8
Black
10
84.4476
20
-239.052
11
84.4425
21
-239.048
0
LINE
8
Black
10
84.4425
20
-239.048
11
84.4393
21
-239.043
0
LINE
8
Black
10
84.4393
20
-239.043
11
84.435
21
-239.037
0
LINE
8
Black
10
84.435
20
-239.037
11
84.4328
21
-239.031
0
LINE
8
Black
10
84.4328
20
-239.031
11
84.4295
21
-239.026
0
LINE
8
Black
10
84.4295
20
-239.026
11
84.4284
21
-239.019
0
LINE
8
Black
10
84.4284
20
-239.019
11
84.4261
21
-239.013
0
LINE
8
Black
10
84.4261
20
-239.013
11
84.4261
21
-239.006
0
LINE
8
Black
10
84.4261
20
-239.006
11
84.425
21
-239
0
LINE
8
Black
10
84.425
20
-239
11
84.425
21
-29
0
LINE
8
Black
10
84.425
20
-29
11
84.4261
21
-28.9935
0
LINE
8
Black
10
84.4261
20
-28.9935
11
84.4261
21
-28.987
0
LINE
8
Black
10
84.4261
20
-28.987
11
84.4284
21
-28.9808
0
LINE
8
Black
10
84.4284
20
-28.9808
11
84.4295
21
-28.9743
0
LINE
8
Black
10
84.4295
20
-28.9743
11
84.4328
21
-28.9687
0
LINE
8
Black
10
84.4328
20
-28.9687
11
84.435
21
-28.9625
0
LINE
8
Black
10
84.435
20
-28.9625
11
84.4393
21
-28.9575
0
LINE
8
Black
10
84.4393
20
-28.9575
11
84.4425
21
-28.9518
0
LINE
8
Black
10
84.4425
20
-28.9518
11
84.4476
21
-28.9476
0
LINE
8
Black
10
84.4476
20
-28.9476
11
84.4518
21
-28.9425
0
LINE
8
Black
10
84.4518
20
-28.9425
11
84.4575
21
-28.9393
0
LINE
8
Black
10
84.4575
20
-28.9393
11
84.4625
21
-28.935
0
LINE
8
Black
10
84.4625
20
-28.935
11
84.4687
21
-28.9328
0
LINE
8
Black
10
84.4687
20
-28.9328
11
84.4743
21
-28.9295
0
LINE
8
Black
10
84.4743
20
-28.9295
11
84.4808
21
-28.9284
0
LINE
8
Black
10
84.4808
20
-28.9284
11
84.487
21
-28.9261
0
LINE
8
Black
10
84.487
20
-28.9261
11
84.4935
21
-28.9261
0
LINE
8
Black
10
84.4935
20
-28.9261
11
84.5
21
-28.925
0
LINE
8
Black
10
84.5
20
-28.925
11
334.5
21
-28.925
0
LINE
8
Black
10
334.5
20
-28.925
11
334.506
21
-28.9261
0
LINE
8
Black
10
84.575
20
-29.075
11
84.575
21
-238.925
0
LINE
8
Black
10
84.575
20
-238.925
11
334.425
21
-238.925
0
LINE
8
Black
10
334.425
20
-238.925
11
334.425
21
-29.075
0
LINE
8
Black
10
334.425
20
-29.075
11
84.575
21
-29.075
  0
ENDSEC
  0
EOF
